<?xml version="1.0" encoding="UTF-8"?><svg id="Layer_2" xmlns="http://www.w3.org/2000/svg" viewBox="0 0 851.79 508.64"><g id="Layer_1-2"><g><g style="opacity:.3;"><g><line x1="182.86" y1="96.68" x2="90.69" y2="139.31" style="fill:none; stroke:#3863aa; stroke-miterlimit:10;"/><line x1="108.06" y1="103.06" x2="182.86" y2="96.68" style="fill:none; stroke:#3863aa; stroke-miterlimit:10;"/><line x1="256.65" y1="81.61" x2="181.58" y2="96.79" style="fill:none; stroke:#3863aa; stroke-miterlimit:10;"/><line x1="124.14" y1="73.95" x2="181.58" y2="96.79" style="fill:none; stroke:#3863aa; stroke-miterlimit:10;"/><line x1="149.93" y1=".16" x2="124.14" y2="73.95" style="fill:none; stroke:#3863aa; stroke-miterlimit:10;"/><line x1="99.63" y1="94.63" x2="124.14" y2="73.95" style="fill:none; stroke:#3863aa; stroke-miterlimit:10;"/><line x1="65.16" y1=".16" x2="79.12" y2="87.74" style="fill:none; stroke:#3863aa; stroke-miterlimit:10;"/><line x1="246.97" y1="135.91" x2="253.38" y2="82.27" style="fill:none; stroke:#3863aa; stroke-miterlimit:10;"/><line x1="278.61" y1="142.38" x2="246.97" y2="135.91" style="fill:none; stroke:#3863aa; stroke-miterlimit:10;"/><line x1="308.91" y1="89.2" x2="278.61" y2="142.38" style="fill:none; stroke:#3863aa; stroke-miterlimit:10;"/><line x1="254.75" y1="82" x2="308.91" y2="89.2" style="fill:none; stroke:#3863aa; stroke-miterlimit:10;"/><line x1="254.75" y1="82" x2="278.61" y2="142.38" style="fill:none; stroke:#3863aa; stroke-miterlimit:10;"/><line x1="292.7" y1="163.28" x2="278.61" y2="142.38" style="fill:none; stroke:#3863aa; stroke-miterlimit:10;"/><line x1="305.16" y1="159.31" x2="308.1" y2="90.61" style="fill:none; stroke:#3863aa; stroke-miterlimit:10;"/><line x1="334.78" y1="143.4" x2="308.1" y2="90.61" style="fill:none; stroke:#3863aa; stroke-miterlimit:10;"/><line x1="362.35" y1="172.68" x2="334.78" y2="143.4" style="fill:none; stroke:#3863aa; stroke-miterlimit:10;"/><line x1="318.1" y1="162.8" x2="334.78" y2="143.4" style="fill:none; stroke:#3863aa; stroke-miterlimit:10;"/><line x1="326.44" y1="176.76" x2="362.35" y2="172.68" style="fill:none; stroke:#3863aa; stroke-miterlimit:10;"/><circle cx="361.99" cy="172.29" r="2.06" style="fill:#3863aa;"/><circle cx="334.67" cy="143.18" r="2.06" style="fill:#3863aa;"/><circle cx="308.27" cy="90.32" r="2.06" style="fill:#3863aa;"/><circle cx="254.56" cy="81.5" r="2.06" style="fill:#3863aa;"/><circle cx="246.97" cy="135.91" r="2.06" style="fill:#3863aa;"/><circle cx="278.23" cy="141.82" r="2.06" style="fill:#3863aa;"/><circle cx="181.58" cy="96.79" r="2.06" style="fill:#3863aa;"/><circle cx="124.36" cy="73.32" r="2.06" style="fill:#3863aa;"/></g><line x1="96.31" y1="122.97" x2="249.5" y2="302.97" style="fill:#3863aa; stroke:#3863aa; stroke-miterlimit:10;"/><line x1="244.57" y1="211.14" x2="246.79" y2="299.79" style="fill:none; stroke:#3863aa; stroke-miterlimit:10;"/><line x1="217.65" y1="186.44" x2="177.5" y2="180.16" style="fill:none; stroke:#3863aa; stroke-miterlimit:10;"/><line x1="249.33" y1="179.48" x2="244.61" y2="212.97" style="fill:none; stroke:#3863aa; stroke-miterlimit:10;"/><line x1="244.57" y1="211.14" x2="217.65" y2="186.44" style="fill:none; stroke:#3863aa; stroke-miterlimit:10;"/><line x1="209.16" y1="220.34" x2="244.57" y2="211.14" style="fill:none; stroke:#3863aa; stroke-miterlimit:10;"/><line x1="282.52" y1="192.25" x2="244.57" y2="211.14" style="fill:none; stroke:#3863aa; stroke-miterlimit:10;"/><line x1="278.61" y1="181.36" x2="249.33" y2="179.48" style="fill:none; stroke:#3863aa; stroke-miterlimit:10;"/><line x1="177.5" y1="180.16" x2="209.16" y2="220.34" style="fill:none; stroke:#3863aa; stroke-miterlimit:10;"/><line x1="237.08" y1="278.04" x2="209.16" y2="220.34" style="fill:none; stroke:#3863aa; stroke-miterlimit:10;"/><line x1="139.89" y1="259.65" x2="210.04" y2="220.11" style="fill:none; stroke:#3863aa; stroke-miterlimit:10;"/><line x1="217.65" y1="186.44" x2="209.16" y2="220.34" style="fill:none; stroke:#3863aa; stroke-miterlimit:10;"/><line x1="67.55" y1="179.31" x2="179.14" y2="180.42" style="fill:none; stroke:#3863aa; stroke-miterlimit:10;"/><line x1="3.12" y1="208.51" x2="67.55" y2="179.31" style="fill:none; stroke:#3863aa; stroke-miterlimit:10;"/><line x1="90.69" y1="139.31" x2="67.55" y2="179.31" style="fill:none; stroke:#3863aa; stroke-miterlimit:10;"/><line x1="283.46" y1="174.8" x2="108.06" y2="115.57" style="fill:none; stroke:#3863aa; stroke-miterlimit:10;"/><line x1="40.14" y1="89.2" x2="64.14" y2="99.87" style="fill:none; stroke:#3863aa; stroke-miterlimit:10;"/><line x1="2.35" y1="122.21" x2="40.14" y2="89.2" style="fill:none; stroke:#3863aa; stroke-miterlimit:10;"/><line x1="60.57" y1="109.95" x2="2.35" y2="122.21" style="fill:none; stroke:#3863aa; stroke-miterlimit:10;"/><line x1=".31" y1="169.95" x2="60.57" y2="121.95" style="fill:none; stroke:#3863aa; stroke-miterlimit:10;"/><line x1="4.14" y1="265.19" x2="69.5" y2="275.14" style="fill:none; stroke:#3863aa; stroke-miterlimit:10;"/><line x1="116.23" y1="234.55" x2="95.8" y2="266.46" style="fill:none; stroke:#3863aa; stroke-miterlimit:10;"/><line x1="139.89" y1="259.65" x2="116.23" y2="234.55" style="fill:none; stroke:#3863aa; stroke-miterlimit:10;"/><line x1="110.86" y1="270.16" x2="139.89" y2="259.65" style="fill:none; stroke:#3863aa; stroke-miterlimit:10;"/><line x1="145.33" y1="306.8" x2="139.89" y2="259.65" style="fill:none; stroke:#3863aa; stroke-miterlimit:10;"/><line x1="225.76" y1="302.97" x2="145.33" y2="306.8" style="fill:none; stroke:#3863aa; stroke-miterlimit:10;"/><line x1="112.14" y1="289.19" x2="145.33" y2="306.8" style="fill:none; stroke:#3863aa; stroke-miterlimit:10;"/><line x1="1.33" y1="304.89" x2="56.48" y2="333.36" style="fill:none; stroke:#3863aa; stroke-miterlimit:10;"/><line x1="75.89" y1="347.14" x2="56.48" y2="333.36" style="fill:none; stroke:#3863aa; stroke-miterlimit:10;"/><line x1="137.41" y1="348.09" x2="75.89" y2="347.14" style="fill:none; stroke:#3863aa; stroke-miterlimit:10;"/><line x1="121.33" y1="381.36" x2="75.89" y2="347.14" style="fill:none; stroke:#3863aa; stroke-miterlimit:10;"/><line x1="137.41" y1="348.09" x2="121.33" y2="381.36" style="fill:none; stroke:#3863aa; stroke-miterlimit:10;"/><line x1="122.74" y1="400.25" x2="121.33" y2="381.36" style="fill:none; stroke:#3863aa; stroke-miterlimit:10;"/><line x1="106.65" y1="414.72" x2="5.31" y2="393.78" style="fill:none; stroke:#3863aa; stroke-miterlimit:10;"/><line x1="3.21" y1="353.61" x2="75.89" y2="347.14" style="fill:none; stroke:#3863aa; stroke-miterlimit:10;"/><line x1="2.18" y1="349.7" x2="55.06" y2="332.62" style="fill:none; stroke:#3863aa; stroke-miterlimit:10;"/><line x1="3.03" y1="458.8" x2="104.31" y2="430.21" style="fill:none; stroke:#3863aa; stroke-miterlimit:10;"/><line x1="109.25" y1="471.23" x2="97.47" y2="432.14" style="fill:none; stroke:#3863aa; stroke-miterlimit:10;"/><line x1="138.18" y1="449.78" x2="109.25" y2="471.23" style="fill:none; stroke:#3863aa; stroke-miterlimit:10;"/><line x1="131.03" y1="499.82" x2="109.25" y2="471.23" style="fill:none; stroke:#3863aa; stroke-miterlimit:10;"/><line x1="140.91" y1="497.1" x2="136.14" y2="442.63" style="fill:none; stroke:#3863aa; stroke-miterlimit:10;"/><line x1="169.16" y1="440.08" x2="138.18" y2="449.78" style="fill:none; stroke:#3863aa; stroke-miterlimit:10;"/><line x1="224.65" y1="495.57" x2="194.18" y2="460.51" style="fill:none; stroke:#3863aa; stroke-miterlimit:10;"/><line x1="149.42" y1="431.4" x2="169.16" y2="440.08" style="fill:none; stroke:#3863aa; stroke-miterlimit:10;"/><line x1="194.18" y1="460.51" x2="169.16" y2="440.08" style="fill:none; stroke:#3863aa; stroke-miterlimit:10;"/><line x1="164.57" y1="494.04" x2="194.18" y2="460.51" style="fill:none; stroke:#3863aa; stroke-miterlimit:10;"/><line x1="221.59" y1="409.44" x2="121.33" y2="381.36" style="fill:none; stroke:#3863aa; stroke-miterlimit:10;"/><line x1="221.59" y1="409.44" x2="137.41" y2="348.09" style="fill:none; stroke:#3863aa; stroke-miterlimit:10;"/><line x1="221.59" y1="409.44" x2="167.26" y2="440.67" style="fill:none; stroke:#3863aa; stroke-miterlimit:10;"/><line x1="228.57" y1="317.7" x2="142.61" y2="402.8" style="fill:none; stroke:#3863aa; stroke-miterlimit:10;"/><line x1="240.82" y1="319.12" x2="221.59" y2="409.44" style="fill:none; stroke:#3863aa; stroke-miterlimit:10;"/><line x1="226.86" y1="310.89" x2="137.41" y2="348.09" style="fill:none; stroke:#3863aa; stroke-miterlimit:10;"/><line x1="301.08" y1="231.57" x2="244.57" y2="211.14" style="fill:none; stroke:#3863aa; stroke-miterlimit:10;"/><line x1="300.74" y1="207.4" x2="301.08" y2="231.57" style="fill:none; stroke:#3863aa; stroke-miterlimit:10;"/><line x1="293.76" y1="201.7" x2="256.82" y2="279.23" style="fill:none; stroke:#3863aa; stroke-miterlimit:10;"/><line x1="295.26" y1="247.1" x2="318.78" y2="259.48" style="fill:none; stroke:#3863aa; stroke-miterlimit:10;"/><line x1="363.03" y1="271.74" x2="318.78" y2="259.48" style="fill:none; stroke:#3863aa; stroke-miterlimit:10;"/><line x1="335.12" y1="307.82" x2="363.03" y2="271.74" style="fill:none; stroke:#3863aa; stroke-miterlimit:10;"/><line x1="335.12" y1="307.82" x2="318.78" y2="259.48" style="fill:none; stroke:#3863aa; stroke-miterlimit:10;"/><line x1="302.44" y1="369.44" x2="335.12" y2="307.82" style="fill:none; stroke:#3863aa; stroke-miterlimit:10;"/><line x1="309.59" y1="315.31" x2="336.82" y2="308.16" style="fill:none; stroke:#3863aa; stroke-miterlimit:10;"/><line x1="272.82" y1="307.14" x2="309.59" y2="315.31" style="fill:none; stroke:#3863aa; stroke-miterlimit:10;"/><line x1="302.44" y1="369.44" x2="307.02" y2="314.74" style="fill:none; stroke:#3863aa; stroke-miterlimit:10;"/><line x1="304.73" y1="413.02" x2="302.44" y2="369.44" style="fill:none; stroke:#3863aa; stroke-miterlimit:10;"/><line x1="251.72" y1="326.21" x2="263.97" y2="404.25" style="fill:none; stroke:#3863aa; stroke-miterlimit:10;"/><line x1="304.73" y1="413.02" x2="263.97" y2="404.25" style="fill:none; stroke:#3863aa; stroke-miterlimit:10;"/><line x1="263.97" y1="404.25" x2="302.44" y2="369.44" style="fill:none; stroke:#3863aa; stroke-miterlimit:10;"/><line x1="266.68" y1="317.7" x2="346.69" y2="392.59" style="fill:none; stroke:#3863aa; stroke-miterlimit:10;"/><line x1="352.48" y1="365.23" x2="302.44" y2="369.44" style="fill:none; stroke:#3863aa; stroke-miterlimit:10;"/><line x1="357.59" y1="390.8" x2="352.48" y2="365.23" style="fill:none; stroke:#3863aa; stroke-miterlimit:10;"/><line x1="365.42" y1="408.63" x2="304.73" y2="413.02" style="fill:none; stroke:#3863aa; stroke-miterlimit:10;"/><line x1="304.73" y1="413.02" x2="352.48" y2="365.23" style="fill:none; stroke:#3863aa; stroke-miterlimit:10;"/><line x1="323.21" y1="451.68" x2="304.73" y2="413.02" style="fill:none; stroke:#3863aa; stroke-miterlimit:10;"/><line x1="346.69" y1="425.06" x2="286.1" y2="495.4" style="fill:none; stroke:#3863aa; stroke-miterlimit:10;"/><line x1="380.06" y1="496.42" x2="368.48" y2="435.74" style="fill:none; stroke:#3863aa; stroke-miterlimit:10;"/><line x1="536.65" y1="497.44" x2="508.74" y2="447.4" style="fill:none; stroke:#3863aa; stroke-miterlimit:10;"/><line x1="450.52" y1="500.85" x2="434.18" y2="444.93" style="fill:none; stroke:#3863aa; stroke-miterlimit:10;"/><line x1="386.86" y1="420.16" x2="434.18" y2="444.93" style="fill:none; stroke:#3863aa; stroke-miterlimit:10;"/><line x1="432.82" y1="442.97" x2="508.74" y2="447.4" style="fill:none; stroke:#3863aa; stroke-miterlimit:10;"/><line x1="695.97" y1="364.28" x2="564.91" y2="360.25" style="fill:none; stroke:#3863aa; stroke-miterlimit:10;"/><line x1="383.12" y1="400.76" x2="525.42" y2="364.28" style="fill:none; stroke:#3863aa; stroke-miterlimit:10;"/><line x1="586.01" y1="398.04" x2="563.55" y2="375.57" style="fill:none; stroke:#3863aa; stroke-miterlimit:10;"/><line x1="566.95" y1="368.76" x2="621.42" y2="389.12" style="fill:none; stroke:#3863aa; stroke-miterlimit:10;"/><line x1="655.46" y1="408.63" x2="621.42" y2="389.12" style="fill:none; stroke:#3863aa; stroke-miterlimit:10;"/><line x1="604.74" y1="432.35" x2="655.46" y2="408.63" style="fill:none; stroke:#3863aa; stroke-miterlimit:10;"/><line x1="586.01" y1="398.04" x2="604.74" y2="432.35" style="fill:none; stroke:#3863aa; stroke-miterlimit:10;"/><line x1="656.48" y1="445.19" x2="604.74" y2="432.35" style="fill:none; stroke:#3863aa; stroke-miterlimit:10;"/><line x1="692.39" y1="487.23" x2="656.48" y2="445.19" style="fill:none; stroke:#3863aa; stroke-miterlimit:10;"/><line x1="656.48" y1="445.19" x2="655.46" y2="408.63" style="fill:none; stroke:#3863aa; stroke-miterlimit:10;"/><line x1="621.42" y1="389.12" x2="604.74" y2="432.35" style="fill:none; stroke:#3863aa; stroke-miterlimit:10;"/><line x1="586.01" y1="398.04" x2="621.42" y2="389.12" style="fill:none; stroke:#3863aa; stroke-miterlimit:10;"/><line x1="382.78" y1="398.88" x2="443.55" y2="375.74" style="fill:none; stroke:#3863aa; stroke-miterlimit:10;"/><line x1="462.69" y1="327.99" x2="443.55" y2="375.74" style="fill:none; stroke:#3863aa; stroke-miterlimit:10;"/><line x1="484.14" y1="353.78" x2="442.35" y2="376.19" style="fill:none; stroke:#3863aa; stroke-miterlimit:10;"/><line x1="521.16" y1="356.85" x2="484.14" y2="353.78" style="fill:none; stroke:#3863aa; stroke-miterlimit:10;"/><line x1="462.69" y1="327.99" x2="484.14" y2="353.78" style="fill:none; stroke:#3863aa; stroke-miterlimit:10;"/><line x1="505.33" y1="308.59" x2="529.08" y2="340.89" style="fill:none; stroke:#3863aa; stroke-miterlimit:10;"/><line x1="551.03" y1="288.68" x2="505.33" y2="308.59" style="fill:none; stroke:#3863aa; stroke-miterlimit:10;"/><line x1="540.31" y1="251.14" x2="551.03" y2="288.68" style="fill:none; stroke:#3863aa; stroke-miterlimit:10;"/><line x1="565.84" y1="254.46" x2="551.03" y2="288.68" style="fill:none; stroke:#3863aa; stroke-miterlimit:10;"/><line x1="551.03" y1="214.38" x2="540.65" y2="252.32" style="fill:none; stroke:#3863aa; stroke-miterlimit:10;"/><line x1="551.03" y1="214.38" x2="565.84" y2="254.46" style="fill:none; stroke:#3863aa; stroke-miterlimit:10;"/><line x1="565.84" y1="254.46" x2="542.61" y2="252.42" style="fill:none; stroke:#3863aa; stroke-miterlimit:10;"/><line x1="593.42" y1="228.16" x2="565.84" y2="254.46" style="fill:none; stroke:#3863aa; stroke-miterlimit:10;"/><line x1="584.74" y1="212.59" x2="552.57" y2="214.12" style="fill:none; stroke:#3863aa; stroke-miterlimit:10;"/><line x1="599.29" y1="233.35" x2="554.23" y2="336.16" style="fill:none; stroke:#3863aa; stroke-miterlimit:10;"/><line x1="613.84" y1="313.95" x2="551.03" y2="288.68" style="fill:none; stroke:#3863aa; stroke-miterlimit:10;"/><line x1="565.33" y1="344.59" x2="613.84" y2="313.95" style="fill:none; stroke:#3863aa; stroke-miterlimit:10;"/><line x1="698.35" y1="274.38" x2="631.46" y2="226.89" style="fill:none; stroke:#3863aa; stroke-miterlimit:10;"/><line x1="673.08" y1="231.74" x2="634.01" y2="221.53" style="fill:none; stroke:#3863aa; stroke-miterlimit:10;"/><line x1="676.14" y1="194.21" x2="673.08" y2="231.74" style="fill:none; stroke:#3863aa; stroke-miterlimit:10;"/><line x1="715.41" y1="236.08" x2="673.08" y2="231.74" style="fill:none; stroke:#3863aa; stroke-miterlimit:10;"/><line x1="715.41" y1="236.08" x2="676.04" y2="195.45" style="fill:none; stroke:#3863aa; stroke-miterlimit:10;"/><line x1="745.03" y1="153.34" x2="676.04" y2="195.45" style="fill:none; stroke:#3863aa; stroke-miterlimit:10;"/><line x1="633.25" y1="206.21" x2="676.04" y2="195.45" style="fill:none; stroke:#3863aa; stroke-miterlimit:10;"/><line x1="676.14" y1="155.4" x2="629.16" y2="196.25" style="fill:none; stroke:#3863aa; stroke-miterlimit:10;"/><line x1="637.33" y1="164.34" x2="676.14" y2="155.4" style="fill:none; stroke:#3863aa; stroke-miterlimit:10;"/><line x1="647.03" y1="131.91" x2="676.14" y2="155.4" style="fill:none; stroke:#3863aa; stroke-miterlimit:10;"/><line x1="647.03" y1="131.91" x2="637.33" y2="164.34" style="fill:none; stroke:#3863aa; stroke-miterlimit:10;"/><line x1="602.61" y1="145.44" x2="647.03" y2="131.91" style="fill:none; stroke:#3863aa; stroke-miterlimit:10;"/><line x1="602.61" y1="145.44" x2="637.33" y2="164.34" style="fill:none; stroke:#3863aa; stroke-miterlimit:10;"/><line x1="606.44" y1="187.06" x2="602.61" y2="145.44" style="fill:none; stroke:#3863aa; stroke-miterlimit:10;"/><circle cx="81.61" cy="105.7" r="27.14" style="fill:#f78f22;"/><line x1="90.69" y1="139.31" x2="88.44" y2="131.97" style="fill:none; stroke:#3863aa; stroke-miterlimit:10;"/><circle cx="301.91" cy="181.64" r="27.14" style="fill:#f27a22;"/><circle cx="88.53" cy="277.82" r="27.14" style="fill:#1ca049;"/><circle cx="126.44" cy="418.81" r="27.14" style="fill:#e9645f;"/><circle cx="247.68" cy="300.51" r="27.14" style="fill:#54b648;"/><circle cx="364.83" cy="408.63" r="27.14" style="fill:#ea608c;"/><circle cx="542.81" cy="359.57" r="27.14" style="fill:#4569b2;"/><circle cx="608.77" cy="212.36" r="27.14" style="fill:#6471b6;"/><g><path d="M81.51,108.09l-3.85,3.77c-1.01,1.01-1.57,2.33-1.57,3.74,0,2.93,2.44,5.31,5.42,5.31s5.42-2.38,5.42-5.31c0-1.41-.56-2.75-1.57-3.74l-3.85-3.77Z" style="fill:#fff;"/><path d="M88.73,95.63l-.79,.99c-2.13,2.66-6.43,1.16-6.43-2.26v-5.96s-14.45,7.22-14.45,19.87c0,5.27,2.82,9.88,7.03,12.39-1.01-1.43-1.61-3.18-1.61-5.06,0-2.38,.94-4.62,2.66-6.32l6.38-6.25,6.38,6.27c1.72,1.68,2.66,3.92,2.66,6.32,0,1.84-.56,3.54-1.54,4.97,3.41-2.08,5.94-5.53,6.7-9.57,1.19-6.41-1.93-12.46-6.97-15.39Z" style="fill:#fff;"/></g><g><rect x="287.36" y="167.08" width="32.44" height="32.44" style="fill:none;"/><path d="M314.4,182.66c.86,0,1.56-.7,1.56-1.56s-.7-1.56-1.56-1.56h-1.56v-9.35h1.56c.86,0,1.56-.7,1.56-1.56s-.7-1.56-1.56-1.56h-24.93c-.86,0-1.56,.7-1.56,1.56s.7,1.56,1.56,1.56h1.56v9.35h-1.56c-.86,0-1.56,.7-1.56,1.56s.7,1.56,1.56,1.56h1.56v9.35h-1.56c-.86,0-1.56,.7-1.56,1.56s.7,1.56,1.56,1.56h24.93c.86,0,1.56-.7,1.56-1.56s-.7-1.56-1.56-1.56h-1.56v-9.35h1.56Zm-12.46,4.67c-2.59,0-4.67-2.06-4.67-4.6,0-2.03,.81-2.6,4.67-7.09,3.85,4.46,4.67,5.05,4.67,7.09,0,2.54-2.09,4.6-4.67,4.6Z" style="fill:#fff;"/></g><g><rect x="53.67" y="233.35" width="24" height="24" style="fill:none;"/><path d="M92.96,259.04l-17.06,15.28c-1.05,.96-.46,2.72,.96,2.85l13.32,1.28-7.99,11.13c-.36,.51-.31,1.22,.13,1.66h0c.49,.49,1.27,.51,1.78,.03l17.06-15.28c1.05-.96,.46-2.72-.96-2.85l-13.32-1.28,7.99-11.13c.36-.51,.31-1.22-.13-1.66h0c-.49-.49-1.27-.51-1.78-.03Z" style="fill:#fff;"/></g><g><path d="M108.45,401.56h35.78v35.78h-35.78v-35.78Z" style="fill:none;"/><path d="M121.87,432.87c0,.75,.6,1.49,1.49,1.49h5.96c.89,0,1.49-.75,1.49-1.49v-1.49h-8.95v1.49Zm4.47-28.33c-5.81,0-10.44,4.62-10.44,10.44,0,3.58,1.79,6.71,4.47,8.5v3.43c0,.75,.6,1.49,1.49,1.49h8.95c.89,0,1.49-.75,1.49-1.49v-3.43c2.68-1.94,4.47-5.07,4.47-8.5,0-5.81-4.62-10.44-10.44-10.44Z" style="fill:#fff;"/></g><g><rect x="526.17" y="338.67" width="33.28" height="33.28" style="fill:none;"/><g><rect x="531.72" y="342.83" width="8.32" height="2.77" style="fill:#fff;"/><rect x="527.56" y="348.38" width="6.93" height="2.77" style="fill:#fff;"/><rect x="530.33" y="365.02" width="6.93" height="2.77" style="fill:#fff;"/><path d="M545.21,353.39c1.04,.32,1.8,1.08,2.18,2.02l5.92-9.86c.9-1.5,.42-3.44-1.08-4.34-1.21-.72-2.76-.57-3.79,.4l-4.76,4.45c-.55,.51-.87,1.25-.87,2.01v5.45c.5-.21,1.36-.46,2.4-.14Z" style="fill:#fff;"/><path d="M540.88,355.69c.22-.72,.67-1.33,1.23-1.76h-11.4c-1.75,0-3.16,1.41-3.16,3.16,0,1.41,.93,2.65,2.29,3.04l6.25,1.79c.73,.21,1.53,.11,2.19-.29l3.73-2.23c-1.07-.86-1.57-2.32-1.14-3.7Z" style="fill:#fff;"/><path d="M556.97,364.48l-3.16-5.69c-.37-.67-1.01-1.15-1.75-1.35l-4.41-1.11c.04,.44,0,.92-.14,1.37-.44,1.47-1.78,2.45-3.31,2.45-.85,0-1.37-.31-1.39-.31v7.93c-1.53,0-2.77,1.25-2.77,2.77h8.32c0-1.53-1.25-2.77-2.77-2.77v-5.94l6.39,6.39c1.23,1.23,3.23,1.23,4.47,0,1-1,1.22-2.54,.53-3.77Z" style="fill:#fff;"/><path d="M543.59,358.68c1.1,.33,2.26-.28,2.59-1.39,.33-1.1-.28-2.26-1.39-2.59-1.1-.33-2.26,.28-2.59,1.39-.33,1.1,.29,2.26,1.39,2.59Z" style="fill:#fff;"/></g></g><g><rect x="594.18" y="194.46" width="33.76" height="33.76" style="fill:none;"/><g><polygon points="598.87 216.96 609.66 216.96 609.66 212.74 599.81 212.74 598.87 216.96" style="fill:#fff;"/><polygon points="612.47 216.96 623.26 216.96 622.31 212.74 612.47 212.74 612.47 216.96" style="fill:#fff;"/><polygon points="623.88 219.78 612.47 219.78 612.47 225.4 625.13 225.4 623.88 219.78" style="fill:#fff;"/><polygon points="597 225.4 609.66 225.4 609.66 219.78 598.25 219.78 597 225.4" style="fill:#fff;"/><rect x="609.66" y="205.71" width="2.81" height="4.22" style="fill:#fff;"/><rect x="617.44" y="202.98" width="2.81" height="4.22" transform="translate(36.23 497.66) rotate(-45)" style="fill:#fff;"/><rect x="601.18" y="203.68" width="4.22" height="2.81" transform="translate(31.68 486.66) rotate(-45)" style="fill:#fff;"/><rect x="598.4" y="197.27" width="4.22" height="2.81" style="fill:#fff;"/><rect x="619.5" y="197.27" width="4.22" height="2.81" style="fill:#fff;"/><path d="M611.06,204.3c3.88,0,7.03-3.15,7.03-7.03h-14.06c0,3.88,3.15,7.03,7.03,7.03Z" style="fill:#fff;"/></g></g><g><circle cx="248.38" cy="299.57" r="3.97" style="fill:#fff;"/><path d="M238.56,284.2c-.09,.32,.04,.63,.15,.83,2.5,4.44,4.41,7.68,5.09,8.71,.12,.19,.36,.54,.78,.65,.54,.13,.8-.31,1.8-.62,.53-.16,.95-.19,1.78-.24,.77-.05,1.16-.07,1.56,0,1.34,.25,1.73,1.15,2.43,.94,.54-.16,.8-.72,.99-1.1,1.31-2.68,3.65-6.42,4.04-7.04,.65-1.03,.99-1.44,.86-2.01-.15-.63-.8-1.16-3.17-1.89-2.13-.67-3.82-1.19-6.31-1.24,0,0-3.4-.07-6.38,.99-.75,.27-.4,.23-2.14,.99-.83,.36-1.36,.56-1.49,1.04Z" style="fill:#fff;"/><path d="M266.69,298.89c-.23-.23-.56-.28-.79-.29-5.09-.09-8.86-.09-10.08-.02-.22,.01-.65,.04-.95,.34-.39,.4-.14,.85-.38,1.87-.13,.54-.32,.92-.7,1.65-.35,.69-.53,1.03-.8,1.34-.89,1.03-1.87,.92-2.04,1.62-.14,.55,.22,1.06,.45,1.41,1.65,2.48,3.69,6.4,4.03,7.05,.56,1.08,.74,1.58,1.3,1.76,.62,.19,1.4-.11,3.24-1.77,1.65-1.5,2.96-2.69,4.26-4.81,0,0,1.78-2.9,2.37-6,.15-.78,0-.46,.23-2.35,.11-.89,.2-1.46-.14-1.81Z" style="fill:#fff;"/><path d="M240.1,315.72c.31-.09,.52-.35,.63-.55,2.51-4.43,4.3-7.74,4.83-8.85,.1-.2,.28-.59,.15-1-.16-.53-.68-.52-1.46-1.22-.42-.37-.65-.72-1.12-1.4-.44-.64-.66-.95-.8-1.34-.48-1.27,.09-2.08-.45-2.57-.41-.38-1.03-.32-1.45-.28-2.97,.27-7.39,.19-8.12,.17-1.22-.02-1.75-.1-2.17,.3-.46,.45-.58,1.29,.01,3.69,.53,2.17,.95,3.88,2.19,6.04,0,0,1.7,2.95,4.14,4.95,.61,.5,.4,.22,1.95,1.32,.73,.52,1.18,.87,1.66,.74Z" style="fill:#fff;"/></g><path d="M373.84,416.06c-2.23,0-3.63,.69-4.87,1.32-1.07,.54-1.95,.99-3.38,.99s-2.31-.41-3.38-.99c-1.24-.63-2.59-1.32-4.87-1.32s-3.63,.69-4.87,1.32c-1.07,.54-1.93,.99-3.38,.99v3.22c2.23,0,3.63-.69,4.87-1.32,1.07-.54,1.93-.99,3.38-.99s2.31,.41,3.38,.99c1.24,.63,2.59,1.32,4.87,1.32s3.63-.69,4.87-1.32c1.07-.54,1.95-.99,3.38-.99s2.31,.41,3.38,.99c1.24,.63,2.61,1.32,4.87,1.32v-3.22c-1.49,0-2.31-.41-3.38-.99-1.24-.63-2.64-1.32-4.87-1.32Zm0-7.35c-2.23,0-3.63,.71-4.87,1.32-1.07,.53-1.95,.99-3.38,.99s-2.31-.41-3.38-.99c-1.24-.63-2.59-1.32-4.87-1.32s-3.63,.71-4.87,1.32c-1.07,.53-1.93,.99-3.38,.99v3.22c2.23,0,3.63-.71,4.87-1.32,1.07-.58,1.9-.99,3.38-.99s2.31,.41,3.38,.99c1.24,.63,2.59,1.32,4.87,1.32s3.63-.71,4.87-1.32c1.07-.58,1.9-.99,3.38-.99s2.31,.41,3.38,.99c1.24,.63,2.61,1.32,4.87,1.32v-3.22c-1.49,0-2.31-.41-3.38-.99-1.24-.63-2.64-1.32-4.87-1.32Zm4.87-13.34c-1.24-.63-2.61-1.32-4.87-1.32s-3.63,.69-4.87,1.32c-1.07,.53-1.95,.99-3.38,.99s-2.31-.41-3.38-.99c-1.24-.61-2.59-1.32-4.87-1.32s-3.63,.69-4.87,1.32c-1.07,.54-1.93,.99-3.38,.99v3.19c2.23,0,3.63-.71,4.87-1.32,1.07-.54,1.93-.99,3.38-.99s2.31,.41,3.38,.99c1.24,.63,2.59,1.32,4.87,1.32s3.63-.71,4.87-1.32c1.07-.53,1.95-.99,3.38-.99s2.31,.41,3.38,.99c1.24,.63,2.61,1.32,4.87,1.32v-3.22c-1.49,0-2.31-.41-3.38-.96Zm-4.87,5.99c-2.23,0-3.63,.71-4.87,1.32-1.07,.58-1.9,.99-3.38,.99s-2.31-.41-3.38-.99c-1.24-.63-2.59-1.32-4.87-1.32s-3.63,.71-4.87,1.32c-1.07,.58-1.9,.99-3.38,.99v3.22c2.23,0,3.63-.71,4.87-1.32,1.07-.53,1.95-.99,3.38-.99s2.31,.41,3.38,.99c1.24,.63,2.59,1.32,4.87,1.32s3.63-.71,4.87-1.32c1.07-.53,1.95-.99,3.38-.99s2.31,.41,3.38,.99c1.24,.63,2.61,1.32,4.87,1.32v-3.22c-1.49,0-2.31-.41-3.38-.99-1.24-.63-2.64-1.32-4.87-1.32Z" style="fill:#fff;"/><circle cx="217.16" cy="186.37" r="2.06" style="fill:#3863aa;"/><circle cx="249.33" cy="179.48" r="2.06" style="fill:#3863aa;"/><circle cx="177.69" cy="180.41" r="2.06" style="fill:#3863aa;"/><circle cx="209.16" cy="220.34" r="2.06" style="fill:#3863aa;"/><circle cx="244.64" cy="211.21" r="2.06" style="fill:#3863aa;"/><circle cx="189.05" cy="231.94" r="2.06" style="fill:#3863aa;"/><circle cx="282.82" cy="224.65" r="2.06" style="fill:#3863aa;"/><circle cx="301.07" cy="230.94" r="2.06" style="fill:#3863aa;"/><circle cx="295.76" cy="247.37" r="2.06" style="fill:#3863aa;"/><circle cx="319.01" cy="259.55" r="2.06" style="fill:#3863aa;"/><circle cx="362.14" cy="271.76" r="2.06" style="fill:#3863aa;"/><circle cx="335.51" cy="307.98" r="2.06" style="fill:#3863aa;"/><circle cx="307.9" cy="315.2" r="2.06" style="fill:#3863aa;"/><circle cx="303.86" cy="352.49" r="2.06" style="fill:#3863aa;"/><circle cx="308.92" cy="357.23" r="2.06" style="fill:#3863aa;"/><circle cx="302.14" cy="370" r="2.06" style="fill:#3863aa;"/><circle cx="320.35" cy="367.94" r="2.06" style="fill:#3863aa;"/><circle cx="352.23" cy="365.48" r="2.06" style="fill:#3863aa;"/><circle cx="335.88" cy="381.84" r="2.06" style="fill:#3863aa;"/><circle cx="304.61" cy="412.77" r="2.06" style="fill:#3863aa;"/><circle cx="264.23" cy="404.31" r="2.06" style="fill:#3863aa;"/><circle cx="220.98" cy="409" r="2.06" style="fill:#3863aa;"/><circle cx="155.06" cy="390.8" r="2.06" style="fill:#3863aa;"/><circle cx="172.24" cy="373.47" r="2.06" style="fill:#3863aa;"/><circle cx="137.41" cy="348.09" r="2.06" style="fill:#3863aa;"/><circle cx="121.72" cy="380.56" r="2.06" style="fill:#3863aa;"/><circle cx="55.06" cy="332.62" r="2.06" style="fill:#3863aa;"/><circle cx="75.89" cy="347.14" r="2.06" style="fill:#3863aa;"/><circle cx="145.33" cy="306.8" r="2.06" style="fill:#3863aa;"/><circle cx="139.89" cy="259.65" r="2.06" style="fill:#3863aa;"/><circle cx="116.61" cy="234.96" r="2.06" style="fill:#3863aa;"/><circle cx="68.11" cy="178.34" r="2.06" style="fill:#3863aa;"/><circle cx="90.69" cy="139.31" r="2.06" style="fill:#3863aa;"/><circle cx="104.71" cy="132.84" r="2.06" style="fill:#3863aa;"/><circle cx="128.14" cy="121.99" r="2.06" style="fill:#3863aa;"/><circle cx="40.73" cy="89.46" r="2.06" style="fill:#3863aa;"/><circle cx="2.35" cy="122.21" r="2.06" style="fill:#3863aa;"/><circle cx="97.47" cy="432.14" r="2.06" style="fill:#3863aa;"/><circle cx="109.25" cy="471.23" r="2.06" style="fill:#3863aa;"/><circle cx="137.49" cy="450.29" r="2.06" style="fill:#3863aa;"/><circle cx="168.45" cy="439.5" r="2.06" style="fill:#3863aa;"/><path d="M193.84,462.17c-1.14,0-2.06-.92-2.06-2.06s.92-2.06,2.06-2.06,2.06,.92,2.06,2.06-.92,2.06-2.06,2.06Z" style="fill:#3863aa;"/><circle cx="323.4" cy="452.1" r="2.06" style="fill:#3863aa;"/><circle cx="434.25" cy="443.85" r="2.06" style="fill:#3863aa;"/><circle cx="508.93" cy="447.75" r="2.06" style="fill:#3863aa;"/><circle cx="655.97" cy="444.59" r="2.06" style="fill:#3863aa;"/><circle cx="655.97" cy="408.39" r="2.06" style="fill:#3863aa;"/><circle cx="621.22" cy="389.63" r="2.06" style="fill:#3863aa;"/><circle cx="604.52" cy="431.96" r="2.06" style="fill:#3863aa;"/><circle cx="586.01" cy="398.04" r="2.06" style="fill:#3863aa;"/><circle cx="694.56" cy="364.24" r="2.06" style="fill:#3863aa;"/><circle cx="613.84" cy="313.95" r="2.06" style="fill:#3863aa;"/><circle cx="571.23" cy="297.36" r="2.06" style="fill:#3863aa;"/><circle cx="551.03" cy="288.68" r="2.06" style="fill:#3863aa;"/><circle cx="505.03" cy="308.72" r="2.06" style="fill:#3863aa;"/><circle cx="565.62" cy="253.86" r="2.06" style="fill:#3863aa;"/><circle cx="551.21" cy="214.85" r="2.06" style="fill:#3863aa;"/><circle cx="541.13" cy="252.29" r="2.06" style="fill:#3863aa;"/><circle cx="673.12" cy="231.17" r="2.06" style="fill:#3863aa;"/><circle cx="676.67" cy="195.21" r="2.06" style="fill:#3863aa;"/><circle cx="637.61" cy="164.27" r="2.06" style="fill:#3863aa;"/><circle cx="646.83" cy="132.6" r="2.06" style="fill:#3863aa;"/><circle cx="602.61" cy="145.44" r="2.06" style="fill:#3863aa;"/><circle cx="676.14" cy="155.4" r="2.06" style="fill:#3863aa;"/><circle cx="463.25" cy="328.66" r="2.06" style="fill:#3863aa;"/><circle cx="484.14" cy="353.78" r="2.06" style="fill:#3863aa;"/><circle cx="444.12" cy="375.52" r="2.06" style="fill:#3863aa;"/><circle cx="750.04" cy="72.16" r="2.06" style="fill:#3863aa;"/><circle cx="763.03" cy="98.12" r="2.06" style="fill:#3863aa;"/><circle cx="707.2" cy="98.64" r="2.06" style="fill:#3863aa;"/><circle cx="697.85" cy="75.77" r="2.06" style="fill:#3863aa;"/><circle cx="714.67" cy="236" r="2.06" style="fill:#3863aa;"/><circle cx="698.02" cy="274.14" r="2.06" style="fill:#3863aa;"/></g><line x1="694.56" y1="364.24" x2="655.97" y2="408.39" style="fill:none; opacity:.3; stroke:#3863aa; stroke-miterlimit:10;"/><circle cx="676.14" cy="155.4" r="2.06" style="fill:#3863aa;"/><circle cx="724.93" cy="166.08" r="2.06" style="fill:#3863aa;"/></g><line x1="280.4" y1="173.86" x2="106.12" y2="115.01" style="fill:none; stroke:#3863aa; stroke-miterlimit:10;"/><circle cx="81.72" cy="105.83" r="27.14" style="fill:#f78f22;"/><g><path d="M81.61,107.96l-3.85,3.77c-1.01,1.01-1.57,2.33-1.57,3.74,0,2.93,2.44,5.31,5.42,5.31s5.42-2.38,5.42-5.31c0-1.41-.56-2.75-1.57-3.74l-3.85-3.77Z" style="fill:#fff;"/><path d="M88.84,95.5l-.79,.99c-2.13,2.66-6.43,1.16-6.43-2.26v-5.96s-14.45,7.22-14.45,19.87c0,5.27,2.82,9.88,7.03,12.39-1.01-1.43-1.61-3.18-1.61-5.06,0-2.38,.94-4.62,2.66-6.32l6.38-6.25,6.38,6.27c1.72,1.68,2.66,3.92,2.66,6.32,0,1.84-.56,3.54-1.54,4.97,3.41-2.08,5.94-5.53,6.7-9.57,1.19-6.41-1.93-12.46-6.97-15.39Z" style="fill:#fff;"/></g><line x1="293.06" y1="203.52" x2="254.97" y2="282.55" style="fill:none; stroke:#3863aa; stroke-miterlimit:10;"/><line x1="225.86" y1="303.1" x2="145.44" y2="306.93" style="fill:none; stroke:#3863aa; stroke-miterlimit:10;"/><line x1="108.85" y1="287.97" x2="145.44" y2="306.93" style="fill:none; stroke:#3863aa; stroke-miterlimit:10;"/><line x1="91.96" y1="287.97" x2="121.82" y2="380.69" style="fill:none; stroke:#3863aa; stroke-miterlimit:10;"/><line x1="122.84" y1="400.38" x2="121.82" y2="380.69" style="fill:none; stroke:#3863aa; stroke-miterlimit:10;"/><line x1="144.34" y1="419.58" x2="304.71" y2="412.89" style="fill:none; stroke:#3863aa; stroke-miterlimit:10;"/><line x1="345.91" y1="410.83" x2="304.71" y2="412.89" style="fill:none; stroke:#3863aa; stroke-miterlimit:10;"/><line x1="444.22" y1="375.65" x2="387.94" y2="399.68" style="fill:none; stroke:#3863aa; stroke-miterlimit:10;"/><line x1="598.51" y1="235.5" x2="551.14" y2="344.35" style="fill:none; stroke:#3863aa; stroke-miterlimit:10;"/><circle cx="571.71" cy="297.08" r="2.06" style="fill:#3863aa;"/><circle cx="121.82" cy="380.69" r="2.06" style="fill:#3863aa;"/><circle cx="145.44" cy="306.93" r="2.06" style="fill:#3863aa;"/><circle cx="282.93" cy="224.54" r="2.06" style="fill:#3863aa;"/><circle cx="128.25" cy="122.02" r="2.06" style="fill:#3863aa;"/><circle cx="302.01" cy="181.77" r="27.14" style="fill:#f27a22;"/><g><rect x="288.02" y="167.21" width="32.44" height="32.44" style="fill:none;"/><path d="M315.05,182.79c.86,0,1.56-.7,1.56-1.56s-.7-1.56-1.56-1.56h-1.56v-9.35h1.56c.86,0,1.56-.7,1.56-1.56s-.7-1.56-1.56-1.56h-24.93c-.86,0-1.56,.7-1.56,1.56s.7,1.56,1.56,1.56h1.56v9.35h-1.56c-.86,0-1.56,.7-1.56,1.56s.7,1.56,1.56,1.56h1.56v9.35h-1.56c-.86,0-1.56,.7-1.56,1.56s.7,1.56,1.56,1.56h24.93c.86,0,1.56-.7,1.56-1.56s-.7-1.56-1.56-1.56h-1.56v-9.35h1.56Zm-12.46,4.67c-2.59,0-4.67-2.06-4.67-4.6,0-2.03,.81-2.6,4.67-7.09,3.85,4.46,4.67,5.05,4.67,7.09,0,2.54-2.09,4.6-4.67,4.6Z" style="fill:#fff;"/></g><circle cx="88.63" cy="277.95" r="27.14" style="fill:#1ca049;"/><g><rect x="54.02" y="235.94" width="24" height="24" style="fill:none;"/><path d="M76.25,276.91c-1.05,.96-.46,2.72,.96,2.85l13.32,1.28c-2.62,4.27-5.24,8.53-7.86,12.8l18.84-15.25c1.05-.96,.46-2.72-.96-2.85l-13.32-1.28c2.62-4.27,5.24-8.53,7.86-12.8-6.28,5.08-12.56,10.17-18.84,15.25Z" style="fill:#fff;"/></g><g><circle cx="248.55" cy="301" r="27.14" style="fill:#54b648;"/><g><circle cx="249.25" cy="300.06" r="3.97" style="fill:#fff;"/><path d="M239.43,284.7c-.09,.32,.04,.63,.15,.83,2.5,4.44,4.41,7.68,5.09,8.71,.12,.19,.36,.54,.78,.65,.54,.13,.8-.31,1.8-.62,.53-.16,.95-.19,1.78-.24,.77-.05,1.16-.07,1.56,0,1.34,.25,1.73,1.15,2.43,.94,.54-.16,.8-.72,.99-1.1,1.31-2.68,3.65-6.42,4.04-7.04,.65-1.03,.99-1.44,.86-2.01-.15-.63-.8-1.16-3.17-1.89-2.13-.67-3.82-1.19-6.31-1.24,0,0-3.4-.07-6.38,.99-.75,.27-.4,.23-2.14,.99-.83,.36-1.36,.56-1.49,1.04Z" style="fill:#fff;"/><path d="M267.56,299.39c-.23-.23-.56-.28-.79-.29-5.09-.09-8.86-.09-10.08-.02-.22,.01-.65,.04-.95,.34-.39,.4-.14,.85-.38,1.87-.13,.54-.32,.92-.7,1.65-.35,.69-.53,1.03-.8,1.34-.89,1.03-1.87,.92-2.04,1.62-.14,.55,.22,1.06,.45,1.41,1.65,2.48,3.69,6.4,4.03,7.05,.56,1.08,.74,1.58,1.3,1.76,.62,.19,1.4-.11,3.24-1.77,1.65-1.5,2.96-2.69,4.26-4.81,0,0,1.78-2.9,2.37-6,.15-.78,0-.46,.23-2.35,.11-.89,.2-1.46-.14-1.81Z" style="fill:#fff;"/><path d="M240.97,316.21c.31-.09,.52-.35,.63-.55,2.51-4.43,4.3-7.74,4.83-8.85,.1-.2,.28-.59,.15-1-.16-.53-.68-.52-1.46-1.22-.42-.37-.65-.72-1.12-1.4-.44-.64-.66-.95-.8-1.34-.48-1.27,.09-2.08-.45-2.57-.41-.38-1.03-.32-1.45-.28-2.97,.27-7.39,.19-8.12,.17-1.22-.02-1.75-.1-2.17,.3-.46,.45-.58,1.29,.01,3.69,.53,2.17,.95,3.88,2.19,6.04,0,0,1.7,2.95,4.14,4.95,.61,.5,.4,.22,1.95,1.32,.73,.52,1.18,.87,1.66,.74Z" style="fill:#fff;"/></g></g><circle cx="127.14" cy="418.96" r="27.14" style="fill:#e9645f;"/><g><path d="M108.56,399.45h35.78v35.78h-35.78v-35.78Z" style="fill:none;"/><path d="M121.97,430.76c0,.75,.6,1.49,1.49,1.49h5.96c.89,0,1.49-.75,1.49-1.49v-1.49h-8.95v1.49Zm4.47-28.33c-5.81,0-10.44,4.62-10.44,10.44,0,3.58,1.79,6.71,4.47,8.5v3.43c0,.75,.6,1.49,1.49,1.49h8.95c.89,0,1.49-.75,1.49-1.49v-3.43c2.68-1.94,4.47-5.07,4.47-8.5,0-5.81-4.62-10.44-10.44-10.44Z" style="fill:#fff;"/></g><circle cx="364.94" cy="408.76" r="27.14" style="fill:#ea608c;"/><path d="M374.07,417.36c-2.23,0-3.63,.69-4.87,1.32-1.07,.54-1.95,.99-3.38,.99s-2.31-.41-3.38-.99c-1.24-.63-2.59-1.32-4.87-1.32s-3.63,.69-4.87,1.32c-1.07,.54-1.93,.99-3.38,.99v3.22c2.23,0,3.63-.69,4.87-1.32,1.07-.54,1.93-.99,3.38-.99s2.31,.41,3.38,.99c1.24,.63,2.59,1.32,4.87,1.32s3.63-.69,4.87-1.32c1.07-.54,1.95-.99,3.38-.99s2.31,.41,3.38,.99c1.24,.63,2.61,1.32,4.87,1.32v-3.22c-1.49,0-2.31-.41-3.38-.99-1.24-.63-2.64-1.32-4.87-1.32Zm0-7.35c-2.23,0-3.63,.71-4.87,1.32-1.07,.53-1.95,.99-3.38,.99s-2.31-.41-3.38-.99c-1.24-.63-2.59-1.32-4.87-1.32s-3.63,.71-4.87,1.32c-1.07,.53-1.93,.99-3.38,.99v3.22c2.23,0,3.63-.71,4.87-1.32,1.07-.58,1.9-.99,3.38-.99s2.31,.41,3.38,.99c1.24,.63,2.59,1.32,4.87,1.32s3.63-.71,4.87-1.32c1.07-.58,1.9-.99,3.38-.99s2.31,.41,3.38,.99c1.24,.63,2.61,1.32,4.87,1.32v-3.22c-1.49,0-2.31-.41-3.38-.99-1.24-.63-2.64-1.32-4.87-1.32Zm4.87-13.34c-1.24-.63-2.61-1.32-4.87-1.32s-3.63,.69-4.87,1.32c-1.07,.53-1.95,.99-3.38,.99s-2.31-.41-3.38-.99c-1.24-.61-2.59-1.32-4.87-1.32s-3.63,.69-4.87,1.32c-1.07,.54-1.93,.99-3.38,.99v3.19c2.23,0,3.63-.71,4.87-1.32,1.07-.54,1.93-.99,3.38-.99s2.31,.41,3.38,.99c1.24,.63,2.59,1.32,4.87,1.32s3.63-.71,4.87-1.32c1.07-.53,1.95-.99,3.38-.99s2.31,.41,3.38,.99c1.24,.63,2.61,1.32,4.87,1.32v-3.22c-1.49,0-2.31-.41-3.38-.96Zm-4.87,5.99c-2.23,0-3.63,.71-4.87,1.32-1.07,.58-1.9,.99-3.38,.99s-2.31-.41-3.38-.99c-1.24-.63-2.59-1.32-4.87-1.32s-3.63,.71-4.87,1.32c-1.07,.58-1.9,.99-3.38,.99v3.22c2.23,0,3.63-.71,4.87-1.32,1.07-.53,1.95-.99,3.38-.99s2.31,.41,3.38,.99c1.24,.63,2.59,1.32,4.87,1.32s3.63-.71,4.87-1.32c1.07-.53,1.95-.99,3.38-.99s2.31,.41,3.38,.99c1.24,.63,2.61,1.32,4.87,1.32v-3.22c-1.49,0-2.31-.41-3.38-.99-1.24-.63-2.64-1.32-4.87-1.32Z" style="fill:#fff;"/><circle cx="543.3" cy="359.71" r="27.14" style="fill:#4569b2;"/><g><rect x="527.2" y="341.72" width="33.28" height="33.28" style="fill:none;"/><g><rect x="532.75" y="345.88" width="8.32" height="2.77" style="fill:#fff;"/><rect x="528.58" y="351.42" width="6.93" height="2.77" style="fill:#fff;"/><rect x="531.36" y="368.07" width="6.93" height="2.77" style="fill:#fff;"/><path d="M546.24,356.43c1.04,.32,1.8,1.08,2.18,2.02l5.92-9.86c.9-1.5,.42-3.44-1.08-4.34-1.21-.72-2.76-.57-3.79,.4l-4.76,4.45c-.55,.51-.87,1.25-.87,2.01v5.45c.5-.21,1.36-.46,2.4-.14Z" style="fill:#fff;"/><path d="M541.91,358.73c.22-.72,.67-1.33,1.23-1.76h-11.4c-1.75,0-3.16,1.41-3.16,3.16,0,1.41,.93,2.65,2.29,3.04l6.25,1.79c.73,.21,1.53,.11,2.19-.29l3.73-2.23c-1.07-.86-1.57-2.32-1.14-3.7Z" style="fill:#fff;"/><path d="M558,367.53l-3.16-5.69c-.37-.67-1.01-1.15-1.75-1.35l-4.41-1.11c.04,.44,0,.92-.14,1.37-.44,1.47-1.78,2.45-3.31,2.45-.85,0-1.37-.31-1.39-.31v7.93c-1.53,0-2.77,1.25-2.77,2.77h8.32c0-1.53-1.25-2.77-2.77-2.77v-5.94l6.39,6.39c1.23,1.23,3.23,1.23,4.47,0,1-1,1.22-2.54,.53-3.77Z" style="fill:#fff;"/><path d="M544.62,361.73c1.1,.33,2.26-.28,2.59-1.39,.33-1.1-.28-2.26-1.39-2.59-1.1-.33-2.26,.28-2.59,1.39-.33,1.1,.29,2.26,1.39,2.59Z" style="fill:#fff;"/></g></g><circle cx="608.87" cy="212.49" r="27.14" style="fill:#6471b6;"/><g><rect x="592.31" y="194.25" width="33.76" height="33.76" style="fill:none;"/><g><polygon points="596.99 216.76 607.78 216.76 607.78 212.54 597.94 212.54 596.99 216.76" style="fill:#fff;"/><polygon points="610.6 216.76 621.38 216.76 620.44 212.54 610.6 212.54 610.6 216.76" style="fill:#fff;"/><polygon points="622 219.57 610.6 219.57 610.6 225.2 623.25 225.2 622 219.57" style="fill:#fff;"/><polygon points="595.12 225.2 607.78 225.2 607.78 219.57 596.38 219.57 595.12 225.2" style="fill:#fff;"/><rect x="607.78" y="205.51" width="2.81" height="4.22" style="fill:#fff;"/><rect x="615.56" y="202.77" width="2.81" height="4.22" transform="translate(35.83 496.27) rotate(-45)" style="fill:#fff;"/><rect x="599.3" y="203.48" width="4.22" height="2.81" transform="translate(31.27 485.27) rotate(-45)" style="fill:#fff;"/><rect x="596.53" y="197.07" width="4.22" height="2.81" style="fill:#fff;"/><rect x="617.63" y="197.07" width="4.22" height="2.81" style="fill:#fff;"/><path d="M609.19,204.1c3.88,0,7.03-3.15,7.03-7.03h-14.06c0,3.88,3.15,7.03,7.03,7.03Z" style="fill:#fff;"/></g></g><line x1="484.25" y1="353.91" x2="516.37" y2="356.35" style="fill:none; stroke:#3863aa; stroke-miterlimit:10;"/><line x1="443.65" y1="375.87" x2="484.25" y2="353.91" style="fill:none; stroke:#3863aa; stroke-miterlimit:10;"/><circle cx="484.53" cy="354.25" r="2.06" style="fill:#3863aa;"/><circle cx="444.22" cy="375.56" r="2.06" style="fill:#3863aa;"/><rect x="8.9" y="138.88" width="153.41" height="20.62" rx="3.32" ry="3.32" style="fill:#f1f2f2; opacity:.87;"/><text transform="translate(11.44 152.89)" style="fill:#231f20;  &apos;Segoe UI&apos;; font-size:10.33px; font-weight:300;"><tspan x="0" y="0">1. Renewable Energy Introduction</tspan></text><rect x="235.08" y="215.87" width="143.27" height="20.62" rx="3.32" ry="3.32" style="fill:#f1f2f2; opacity:.87;"/><text transform="translate(239.94 229.88)" style="fill:#231f20;  &apos;Segoe UI&apos;; font-size:10.33px; font-weight:300;"><tspan x="0" y="0">2. Renewable Energy Systems</tspan></text><rect x="191.55" y="334.33" width="114.01" height="20.62" rx="3.32" ry="3.32" style="fill:#f1f2f2; opacity:.87;"/><text transform="translate(197.04 347.74)" style="fill:#231f20;  &apos;Segoe UI&apos;; font-size:10.33px; font-weight:300;"><tspan x="0" y="0">3. Design &amp; Assessment</tspan></text><rect x="42.56" y="312.93" width="88.94" height="20.62" rx="3.32" ry="3.32" style="fill:#f1f2f2; opacity:.87;"/><text transform="translate(47.43 326.94)" style="fill:#231f20;  &apos;Segoe UI&apos;; font-size:10.33px; font-weight:300;"><tspan x="0" y="0">4. Green Job Sites</tspan></text><rect x="94.48" y="453.38" width="66.14" height="20.62" rx="3.32" ry="3.32" style="fill:#f1f2f2; opacity:.87;"/><text transform="translate(99.35 467.4)" style="fill:#231f20;  &apos;Segoe UI&apos;; font-size:10.33px; font-weight:300;"><tspan x="0" y="0">5. Hands-on </tspan></text><rect x="341.56" y="441.13" width="48.26" height="20.62" rx="3.32" ry="3.32" style="fill:#f1f2f2; opacity:.87;"/><text transform="translate(346.43 455.15)" style="fill:#231f20;  &apos;Segoe UI&apos;; font-size:10.33px; font-weight:300;"><tspan x="0" y="0">6. GPRO</tspan></text><rect x="513.26" y="396.75" width="48.22" height="20.62" rx="3.32" ry="3.32" style="fill:#f1f2f2; opacity:.87;"/><text transform="translate(518.13 410.76)" style="fill:#231f20;  &apos;Segoe UI&apos;; font-size:10.33px; font-weight:300;"><tspan x="0" y="0">7. OSHA</tspan></text><rect x="534.41" y="248.5" width="152.38" height="20.62" rx="3.32" ry="3.32" style="fill:#f1f2f2; opacity:.87;"/><text transform="translate(539.28 262.52)" style="fill:#231f20;  &apos;Segoe UI&apos;; font-size:10.33px; font-weight:300;"><tspan x="0" y="0">8. Green Social Entrepreneurship</tspan></text><rect x="715.54" y="178.12" width="93.68" height="20.62" rx="3.32" ry="3.32" style="fill:#f1f2f2; opacity:.87;"/><text transform="translate(720.41 192.13)" style="fill:#231f20;  &apos;Segoe UI&apos;; font-size:10.33px; font-weight:300;"><tspan x="0" y="0">9. Final Launchpad</tspan></text><line x1="698.46" y1="274.51" x2="715.52" y2="236.21" style="fill:none; opacity:.3; stroke:#3863aa; stroke-miterlimit:10;"/><line x1="674.18" y1="155.53" x2="725.65" y2="165.6" style="fill:none; opacity:.3; stroke:#3863aa; stroke-miterlimit:10;"/><line x1="706.99" y1="98.98" x2="743.77" y2="133.74" style="fill:none; opacity:.3; stroke:#3863aa; stroke-miterlimit:10;"/><line x1="750.15" y1="71.39" x2="752.86" y2="118.3" style="fill:none; opacity:.3; stroke:#3863aa; stroke-miterlimit:10;"/><line x1="750.15" y1="71.39" x2="706.99" y2="98.98" style="fill:none; opacity:.3; stroke:#3863aa; stroke-miterlimit:10;"/><line x1="697.81" y1="75.53" x2="646.96" y2="130.66" style="fill:none; opacity:.3; stroke:#3863aa; stroke-miterlimit:10;"/><line x1="697.81" y1="75.53" x2="748.58" y2="72.39" style="fill:none; opacity:.3; stroke:#3863aa; stroke-miterlimit:10;"/><line x1="706.99" y1="98.98" x2="697.81" y2="75.53" style="fill:none; opacity:.3; stroke:#3863aa; stroke-miterlimit:10;"/><line x1="851.52" y1="94.84" x2="788.71" y2="137.06" style="fill:none; opacity:.3; stroke:#3863aa; stroke-miterlimit:10;"/><line x1="849.98" y1="155.02" x2="787.69" y2="152.89" style="fill:none; opacity:.3; stroke:#3863aa; stroke-miterlimit:10;"/><line x1="676.14" y1="155.4" x2="629.8" y2="195.21" style="fill:none; stroke:#3863aa; stroke-miterlimit:10;"/><line x1="725.65" y1="165.6" x2="676.14" y2="155.4" style="fill:none; stroke:#3863aa; stroke-miterlimit:10;"/><line x1="743.09" y1="153.95" x2="725.65" y2="165.6" style="fill:none; stroke:#3863aa; stroke-miterlimit:10;"/><circle cx="765.97" cy="142.06" r="27.14" style="fill:#ef4136;"/><g><rect x="750.15" y="124.82" width="32.62" height="32.62" style="fill:none;"/><path d="M762.64,133.46c-2.77,3.11-4.68,7.59-4.85,8.01l-4.92-2.11,5.51-5.51c.64-.64,1.56-.92,2.46-.75l1.81,.35h0Zm2.69,14.48s5.08-2.11,8.01-5.03c7.34-7.34,6.12-13.08,5.72-14.37-1.29-.41-7.03-1.62-14.37,5.72-2.92,2.92-5.03,8.01-5.03,8.01l5.67,5.67Zm8.81-2.98c-3.11,2.77-7.59,4.68-8.01,4.85l2.11,4.92,5.51-5.51c.64-.64,.92-1.56,.75-2.46l-.35-1.81h0Zm-11.76,4.34c0,1.13-.46,2.15-1.2,2.88-1.6,1.6-8.32,2.56-8.32,2.56,0,0,.95-6.72,2.56-8.32,.73-.73,1.75-1.2,2.88-1.2,2.26,0,4.08,1.82,4.08,4.08Zm5.44-12.23c0-1.5,1.22-2.72,2.72-2.72s2.72,1.22,2.72,2.72-1.22,2.72-2.72,2.72-2.72-1.22-2.72-2.72Z" style="fill:#fff;"/></g></g></svg>